<?xml version="1.0" standalone="no"?>
<!DOCTYPE svg PUBLIC "-//W3C//DTD SVG 20010904//EN"
 "http://www.w3.org/TR/2001/REC-SVG-20010904/DTD/svg10.dtd">
<svg version="1.0" xmlns="http://www.w3.org/2000/svg"
 width="2000.000000pt" height="2000.000000pt" viewBox="0 0 2000.000000 2000.000000"
 preserveAspectRatio="xMidYMid meet">
<metadata>
Created by potrace 1.14, written by Peter Selinger 2001-2017
</metadata>
<g transform="translate(0.000000,2000.000000) scale(0.100000,-0.100000)"
fill="#000000" stroke="none">
<path d="M9005 18222 c-3 -3 -122 -10 -272 -15 -23 -1 -45 -5 -49 -9 -4 -4
-13 -3 -21 3 -7 6 -13 7 -13 2 0 -5 -20 -9 -45 -8 -25 0 -45 -2 -45 -5 0 -3
-21 -5 -47 -4 -27 0 -52 -2 -58 -5 -5 -3 -25 -6 -45 -8 -19 -2 -51 -5 -70 -8
-19 -3 -48 -7 -65 -9 -136 -15 -160 -19 -163 -25 -1 -3 -18 -6 -37 -5 -19 1
-35 -1 -35 -5 0 -6 -41 -12 -102 -15 -16 0 -28 -4 -28 -8 0 -5 -13 -8 -29 -8
-17 0 -33 -5 -36 -10 -4 -6 -10 -8 -15 -5 -8 5 -33 0 -125 -21 -11 -3 -29 -7
-40 -8 -11 -2 -40 -9 -65 -15 -45 -12 -87 -21 -105 -25 -5 -1 -14 -4 -20 -7
-5 -4 -18 -5 -27 -4 -10 2 -18 0 -18 -5 0 -5 -8 -7 -17 -5 -10 1 -23 -2 -30
-7 -7 -5 -17 -7 -22 -4 -5 4 -12 2 -15 -3 -4 -5 -25 -13 -49 -17 -50 -9 -41
-7 -97 -24 -25 -7 -48 -13 -52 -12 -5 1 -8 -2 -8 -7 0 -6 -9 -8 -20 -6 -11 2
-20 1 -20 -3 0 -4 -12 -9 -26 -10 -14 -1 -31 -5 -37 -9 -7 -4 -16 -9 -22 -10
-30 -7 -42 -11 -57 -17 -9 -4 -25 -9 -35 -11 -10 -2 -20 -4 -23 -5 -3 -1 -8
-2 -12 -1 -5 0 -8 -3 -8 -7 0 -4 -8 -8 -17 -9 -10 -1 -31 -7 -48 -14 -16 -7
-38 -13 -47 -14 -10 -1 -24 -8 -33 -15 -8 -7 -15 -9 -15 -5 0 4 -6 3 -12 -2
-7 -6 -31 -16 -53 -23 -22 -7 -44 -15 -50 -19 -5 -3 -19 -7 -29 -8 -11 -2 -25
-8 -31 -13 -7 -5 -15 -7 -18 -3 -4 3 -7 1 -7 -6 0 -8 -7 -11 -15 -7 -8 3 -15
1 -15 -4 0 -6 -7 -10 -15 -10 -8 0 -15 -4 -15 -9 0 -5 -8 -8 -17 -6 -10 1 -25
-4 -34 -12 -9 -7 -20 -13 -25 -12 -16 3 -74 -23 -74 -34 0 -6 -3 -8 -6 -5 -7
8 -116 -41 -126 -56 -4 -6 -8 -8 -8 -4 0 11 -113 -40 -122 -55 -4 -7 -8 -9 -8
-4 0 4 -29 -8 -65 -28 -36 -19 -65 -32 -65 -28 0 3 -8 -1 -17 -9 -10 -9 -28
-19 -40 -22 -13 -4 -23 -11 -23 -16 0 -5 -13 -11 -30 -15 -16 -4 -30 -11 -30
-16 0 -5 -6 -9 -14 -9 -8 0 -22 -8 -32 -17 -10 -10 -19 -17 -21 -15 -3 3 -72
-35 -123 -67 -14 -8 -28 -15 -31 -14 -4 1 -19 -9 -33 -22 -15 -14 -30 -25 -34
-26 -4 -1 -15 -4 -24 -7 -10 -2 -18 -9 -18 -14 0 -5 -4 -6 -10 -3 -5 3 -10 2
-10 -4 0 -5 -20 -20 -45 -32 -25 -12 -45 -26 -45 -29 0 -4 -18 -15 -40 -26
-22 -10 -40 -23 -40 -27 0 -5 -4 -5 -10 -2 -5 3 -10 2 -10 -3 0 -5 -36 -33
-81 -62 -44 -29 -87 -60 -95 -67 -8 -8 -14 -12 -14 -8 0 4 -6 0 -14 -7 -8 -7
-26 -22 -42 -33 -15 -11 -33 -26 -41 -33 -7 -7 -13 -10 -13 -6 0 4 -12 -3 -28
-17 -38 -34 -110 -89 -116 -89 -3 0 -14 -8 -24 -17 -36 -34 -62 -53 -74 -53
-6 0 -8 -3 -5 -7 4 -3 -6 -14 -22 -24 -32 -19 -68 -48 -113 -91 -15 -15 -28
-25 -28 -22 0 3 -15 -8 -32 -25 -18 -17 -55 -50 -82 -73 -27 -24 -65 -58 -85
-75 -20 -18 -40 -33 -44 -33 -5 0 -5 -4 -2 -10 3 -5 2 -10 -4 -10 -6 0 -43
-32 -82 -71 -40 -38 -83 -79 -97 -90 -14 -10 -23 -19 -20 -19 2 0 -51 -57
-119 -127 -68 -70 -123 -134 -123 -142 0 -8 -3 -11 -6 -8 -4 4 -14 -2 -23 -12
-95 -108 -128 -146 -138 -157 -7 -7 -13 -16 -13 -20 0 -3 -8 -14 -18 -23 -15
-13 -67 -77 -147 -179 -5 -7 -17 -22 -27 -32 -9 -10 -14 -21 -11 -24 3 -3 -2
-8 -11 -12 -9 -3 -16 -11 -16 -18 0 -6 -9 -18 -20 -26 -11 -8 -20 -18 -20 -23
0 -8 -11 -23 -43 -58 -9 -10 -14 -19 -10 -19 5 0 3 -4 -3 -8 -6 -4 -37 -45
-70 -92 -32 -47 -62 -86 -66 -88 -5 -2 -8 -10 -8 -18 0 -8 -4 -14 -10 -14 -5
0 -10 -6 -10 -13 0 -7 -9 -23 -20 -35 -12 -12 -17 -22 -13 -22 4 0 0 -5 -10
-11 -9 -6 -15 -14 -12 -19 3 -5 1 -11 -5 -15 -13 -8 -80 -112 -80 -124 0 -5
-4 -11 -8 -13 -11 -4 -82 -123 -82 -137 0 -6 -4 -11 -9 -11 -5 0 -11 -8 -15
-17 -6 -19 -38 -77 -57 -104 -7 -10 -10 -19 -8 -20 2 -2 -6 -14 -16 -27 -11
-12 -21 -26 -21 -30 -5 -23 -17 -52 -23 -52 -4 0 -18 -25 -31 -55 -13 -30 -27
-55 -31 -55 -4 0 -10 -13 -14 -30 -4 -16 -11 -30 -16 -30 -5 0 -9 -6 -9 -13 0
-7 -15 -42 -34 -79 -19 -36 -32 -69 -29 -72 4 -3 1 -6 -5 -6 -7 0 -11 -3 -10
-7 0 -5 -10 -30 -22 -58 -13 -27 -23 -53 -22 -57 1 -5 -2 -8 -8 -8 -6 0 -9 -3
-9 -7 1 -5 -4 -24 -12 -43 -7 -19 -12 -38 -11 -42 1 -5 -2 -8 -6 -8 -9 0 -37
-70 -34 -82 1 -5 -2 -8 -8 -8 -6 0 -9 -3 -9 -7 1 -5 0 -11 -1 -15 -1 -5 -3
-11 -4 -15 -1 -5 -10 -25 -19 -47 -9 -21 -17 -40 -17 -41 0 -1 -8 -20 -17 -41
-9 -22 -16 -43 -15 -48 2 -4 -2 -14 -8 -20 -5 -7 -7 -16 -3 -19 3 -4 1 -7 -5
-7 -7 0 -11 -3 -10 -7 2 -7 -11 -50 -39 -123 -4 -8 -8 -26 -10 -40 -2 -13 -9
-30 -15 -37 -6 -7 -7 -13 -3 -13 4 0 2 -7 -5 -15 -6 -8 -9 -19 -6 -24 4 -5 2
-12 -4 -16 -5 -3 -10 -15 -10 -26 0 -10 -5 -19 -11 -19 -5 0 -8 -4 -5 -9 4 -5
1 -22 -5 -38 -12 -28 -18 -54 -20 -83 -1 -8 -6 -20 -11 -27 -5 -7 -11 -22 -13
-35 -7 -42 -11 -57 -17 -64 -4 -3 -4 -12 -2 -19 3 -7 0 -16 -5 -20 -6 -3 -9
-11 -5 -16 3 -5 0 -17 -8 -26 -7 -9 -12 -18 -10 -20 1 -1 2 -4 1 -5 0 -2 -3
-21 -5 -43 -3 -22 -8 -42 -12 -45 -4 -3 -8 -14 -9 -25 -1 -11 -5 -33 -9 -50
-3 -16 -7 -36 -7 -42 0 -7 -3 -13 -7 -13 -3 0 -6 -8 -6 -17 -1 -10 -5 -34 -9
-53 -4 -19 -9 -44 -10 -55 -2 -11 -4 -20 -5 -20 -2 0 -4 -11 -14 -65 -4 -19
-9 -44 -11 -55 -4 -19 -14 -79 -20 -120 -2 -11 -4 -21 -5 -22 -5 -6 -24 -129
-22 -143 0 -3 -4 -13 -9 -22 -7 -13 -6 -18 3 -18 8 0 9 -3 3 -8 -11 -8 -11 -6
-19 -82 -10 -91 -13 -106 -20 -118 -4 -7 -1 -12 6 -12 8 0 9 -3 3 -8 -5 -4
-10 -16 -9 -27 0 -11 -3 -28 -8 -37 -6 -12 -5 -18 2 -18 6 0 8 -5 5 -11 -9
-13 -15 -66 -18 -156 -1 -40 -4 -73 -7 -73 -3 0 -5 -33 -4 -73 0 -39 -4 -78
-9 -84 -6 -9 -5 -13 3 -13 9 0 10 -3 1 -13 -8 -10 -7 -17 1 -25 7 -7 8 -12 2
-12 -6 0 -8 -102 -7 -272 4 -347 7 -458 13 -458 3 0 6 -26 7 -58 2 -82 9 -148
18 -162 6 -9 4 -11 -5 -5 -9 6 -11 4 -5 -4 7 -13 10 -31 19 -136 3 -27 6 -50
7 -50 1 0 6 -33 10 -80 2 -16 8 -33 14 -37 6 -5 5 -8 -3 -8 -8 0 -10 -5 -6
-12 8 -13 16 -61 18 -110 0 -16 5 -28 9 -28 5 0 7 -8 6 -17 -1 -10 0 -20 1
-23 1 -3 3 -16 5 -30 1 -14 5 -38 9 -55 3 -16 8 -43 12 -60 3 -16 10 -48 15
-70 5 -22 12 -54 14 -72 3 -17 9 -43 14 -56 6 -14 7 -28 4 -31 -3 -3 -1 -12 5
-19 7 -8 9 -17 6 -20 -3 -3 -2 -12 2 -19 5 -7 9 -21 10 -30 1 -10 3 -20 4 -23
7 -15 25 -107 22 -117 -1 -5 2 -8 8 -8 6 0 9 -3 9 -7 -1 -5 -1 -10 0 -13 2 -3
4 -20 7 -39 2 -19 9 -39 14 -46 5 -7 7 -15 4 -18 -3 -3 -2 -12 2 -19 5 -7 9
-17 9 -23 1 -12 24 -95 32 -115 3 -8 5 -21 4 -27 -1 -7 2 -13 7 -13 6 0 9 -6
9 -12 -2 -22 15 -88 22 -88 4 0 8 -12 9 -26 1 -14 5 -31 9 -37 4 -7 8 -18 9
-25 2 -8 6 -21 10 -30 4 -9 9 -26 11 -37 2 -10 7 -22 11 -25 4 -3 8 -14 10
-25 1 -11 7 -29 11 -40 10 -21 20 -52 21 -60 0 -3 11 -29 24 -59 13 -30 27
-68 31 -85 4 -17 11 -31 17 -31 6 0 8 -7 4 -15 -3 -8 0 -15 6 -15 6 0 8 -3 5
-6 -4 -4 0 -19 7 -33 7 -14 18 -37 24 -51 13 -33 42 -98 87 -195 20 -44 38
-85 39 -91 1 -7 8 -19 15 -28 7 -9 10 -16 7 -16 -4 0 2 -13 13 -29 11 -15 18
-31 14 -35 -3 -3 -1 -6 5 -6 7 0 11 -3 11 -7 -2 -12 25 -73 32 -73 4 0 10 -12
14 -27 3 -15 10 -30 14 -33 4 -3 21 -32 38 -65 50 -97 68 -130 73 -135 3 -3
18 -30 34 -60 16 -30 32 -57 35 -60 3 -3 17 -25 30 -50 26 -47 37 -64 90 -142
18 -27 29 -48 24 -48 -4 0 -1 -6 7 -13 15 -12 75 -100 72 -105 -2 -1 6 -11 16
-22 10 -11 24 -31 31 -44 13 -23 -41 -77 -1511 -1547 -1455 -1455 -1576 -1580
-1584 -1638 -1 -9 -6 -29 -10 -46 -10 -41 -8 -127 4 -134 5 -3 8 -19 8 -34 -1
-15 4 -33 11 -39 7 -6 13 -16 13 -23 0 -7 7 -16 16 -19 9 -4 14 -9 11 -12 -3
-3 294 -305 660 -671 365 -367 673 -677 684 -691 10 -14 19 -22 19 -19 0 3 23
-17 51 -44 28 -27 54 -49 59 -49 5 0 16 -8 26 -17 10 -10 21 -19 26 -19 4 -1
9 -2 11 -4 14 -11 158 -30 172 -21 10 6 23 9 66 15 14 2 46 18 72 35 25 18
731 717 1569 1554 1474 1474 1524 1523 1542 1505 10 -9 22 -15 26 -13 5 3 10
-2 14 -10 3 -8 12 -15 21 -15 8 0 15 -4 15 -10 0 -5 5 -10 10 -10 6 0 20 -9
32 -20 12 -10 25 -17 30 -14 4 3 8 1 8 -3 0 -5 23 -22 50 -38 27 -16 50 -33
50 -38 0 -4 5 -5 10 -2 6 3 10 2 10 -3 0 -5 8 -12 18 -16 9 -3 31 -15 47 -26
17 -11 40 -24 53 -30 12 -5 22 -14 22 -20 0 -5 3 -9 8 -9 17 3 31 -2 44 -13
12 -12 58 -39 133 -77 16 -9 32 -18 35 -21 3 -3 28 -16 55 -30 28 -14 52 -28
53 -32 2 -5 9 -8 16 -8 6 0 53 -22 104 -49 51 -27 92 -47 92 -44 0 3 11 -2 25
-11 14 -9 25 -14 25 -11 0 4 7 -1 16 -9 8 -9 20 -14 25 -11 5 4 9 1 9 -5 0 -6
5 -8 10 -5 6 3 10 1 10 -4 0 -6 6 -11 13 -11 6 -1 30 -9 52 -20 22 -11 46 -19
53 -20 6 0 12 -4 12 -10 0 -5 3 -9 8 -9 4 1 10 0 15 -1 4 -1 10 -3 15 -5 4 -1
21 -8 37 -15 17 -7 33 -14 38 -15 4 -2 9 -4 12 -5 3 -1 8 -3 13 -5 4 -1 23 -9
43 -18 20 -9 42 -17 50 -19 8 -2 16 -6 19 -9 3 -4 16 -9 30 -10 14 -2 27 -7
30 -10 5 -5 126 -52 143 -55 4 -1 8 -2 10 -4 1 -1 9 -3 17 -5 14 -3 64 -20
105 -35 84 -32 116 -41 125 -35 5 3 10 2 10 -3 0 -8 25 -16 80 -26 3 -1 10 -4
16 -8 10 -7 58 -19 82 -20 6 -1 12 -6 12 -11 0 -6 2 -8 5 -5 3 3 38 -3 78 -14
76 -20 93 -24 145 -34 18 -3 35 -10 37 -15 3 -4 12 -6 20 -2 9 3 22 0 30 -7 8
-7 15 -10 15 -7 0 3 19 0 43 -5 39 -9 78 -17 102 -22 6 -1 16 -5 23 -10 7 -4
16 -6 19 -3 3 3 16 1 30 -4 14 -5 42 -12 62 -14 20 -3 46 -7 59 -10 12 -3 32
-7 45 -10 19 -4 77 -15 167 -29 14 -3 25 -5 25 -6 0 -1 14 -3 30 -4 43 -4 134
-17 159 -22 12 -3 38 -5 59 -5 20 0 37 -3 37 -7 0 -4 26 -7 58 -7 31 1 61 -1
66 -4 6 -2 26 -6 45 -7 20 -1 81 -5 136 -9 55 -4 114 -8 132 -9 17 0 35 -4 39
-8 4 -4 14 -2 22 5 17 14 22 13 33 -4 6 -10 11 -10 23 0 9 8 16 9 16 4 0 -10
53 -8 70 2 5 3 11 2 13 -3 7 -10 368 -9 385 1 7 5 12 3 12 -3 0 -8 6 -8 20 0
15 8 20 8 20 -1 0 -8 4 -8 15 1 12 10 15 10 15 -1 0 -9 3 -10 8 -4 4 6 43 11
87 13 44 1 105 5 135 8 96 9 184 16 223 17 20 1 37 4 37 7 0 3 15 6 33 7 33 1
122 10 122 13 0 1 18 3 40 5 56 5 93 12 106 21 8 5 9 3 4 -5 -6 -10 -3 -11 12
-3 10 6 39 13 64 16 24 2 44 5 44 6 0 2 24 7 75 15 24 4 47 8 50 10 4 2 29 7
56 11 27 3 60 10 73 15 13 5 26 7 29 4 3 -2 11 0 19 6 7 6 13 9 13 6 0 -3 24
1 53 10 28 8 63 16 77 18 31 4 66 12 90 20 16 5 29 8 75 18 6 2 15 5 20 8 6 3
17 5 25 4 8 0 18 4 22 10 5 6 8 4 8 -5 0 -12 2 -12 9 -2 5 8 20 15 35 15 14 1
26 5 26 8 0 3 6 6 13 6 6 1 62 16 122 33 61 18 116 33 123 33 6 0 12 4 12 8 0
5 7 6 15 3 8 -4 15 -2 15 4 0 8 33 18 78 24 6 1 12 5 12 9 0 5 6 6 14 3 8 -3
17 -1 21 5 3 6 12 11 20 11 8 0 26 5 42 12 15 6 30 12 33 12 3 1 19 6 35 13
17 6 57 21 90 33 33 12 74 28 90 35 81 35 104 43 109 37 3 -3 6 0 6 7 0 7 5 9
10 6 6 -3 10 -1 10 4 0 6 3 10 8 9 7 -1 24 5 112 44 30 14 58 25 63 26 4 1 22
9 40 19 17 9 34 17 37 18 3 0 33 15 68 33 34 17 62 29 62 25 0 -3 8 0 18 8 9
8 31 21 47 29 17 8 51 27 78 42 26 15 47 24 47 20 0 -4 4 -2 8 3 9 13 84 51
90 47 3 -2 9 3 14 12 5 9 15 16 23 16 7 0 20 6 27 13 7 6 31 21 53 32 22 11
45 24 50 28 6 4 42 26 80 49 39 23 72 44 75 48 3 4 20 13 38 21 17 8 32 17 32
20 0 4 13 12 29 19 16 6 32 18 35 27 3 8 10 12 15 9 5 -3 14 1 21 9 7 8 19 15
27 15 7 0 16 7 19 15 4 8 12 15 19 15 7 0 16 7 19 16 3 8 10 13 15 9 6 -3 13
0 18 7 4 7 16 18 25 23 22 13 244 172 266 190 9 8 55 44 102 80 78 60 152 121
185 153 8 6 16 12 19 12 3 0 21 15 40 33 19 17 55 50 80 72 150 130 456 430
456 447 0 5 5 6 10 3 6 -3 10 -3 10 2 0 4 22 31 48 60 106 116 206 231 267
307 17 21 39 48 50 61 11 12 27 32 35 45 8 13 27 37 43 54 15 17 27 33 27 37
0 3 10 17 23 31 12 14 29 35 37 48 8 12 22 30 30 40 8 10 22 28 30 40 8 12 20
28 25 34 6 6 22 29 35 51 13 22 30 46 36 52 7 7 22 28 34 48 12 19 27 35 32
35 6 0 8 3 5 7 -4 3 9 28 28 55 19 26 35 53 35 58 0 6 5 10 10 10 6 0 10 7 10
15 0 8 5 15 10 15 6 0 10 7 10 15 0 8 4 15 9 15 5 0 13 9 16 20 6 20 64 113
84 136 5 7 8 14 5 17 -3 3 6 17 20 32 14 15 23 31 20 36 -3 5 2 12 10 15 9 3
14 9 12 13 -3 4 11 31 30 61 18 30 34 61 34 68 0 6 5 12 11 12 5 0 7 5 4 10
-3 6 -1 10 4 10 6 0 11 9 11 19 0 11 4 21 9 23 12 4 170 326 163 332 -3 3 0 6
6 6 7 0 12 5 12 11 0 5 10 31 22 57 25 52 23 49 33 80 4 12 11 22 16 22 5 0 8
3 7 8 -3 14 15 67 31 92 9 13 15 25 14 27 -4 6 10 43 16 43 4 0 8 6 9 13 1 12
3 22 17 64 4 12 7 25 6 28 -1 3 5 13 14 21 13 14 20 35 16 57 0 4 4 7 9 7 6 0
10 6 9 13 -1 6 1 19 4 27 29 69 54 149 50 154 -4 3 -2 6 4 6 5 0 10 6 10 13 1
6 19 70 42 141 22 71 38 133 35 137 -3 5 -1 9 4 9 9 0 37 111 35 138 0 6 3 12
7 12 7 0 11 14 26 99 3 13 9 32 14 41 5 10 7 20 4 23 -3 3 -2 12 2 19 5 7 9
18 10 23 5 31 14 75 23 109 5 22 8 44 5 48 -3 4 0 8 5 8 6 0 11 16 11 36 0 19
3 33 8 31 4 -3 7 9 8 26 1 18 4 46 7 62 11 50 17 78 23 115 4 19 8 44 11 55
12 63 35 219 37 255 1 20 5 40 8 45 3 6 4 20 3 33 -1 12 1 22 4 22 3 0 7 19 7
43 1 23 4 65 8 92 8 61 16 175 19 272 1 40 5 73 9 73 3 0 4 9 1 20 -3 11 0 22
8 25 8 3 707 7 1554 8 847 2 1546 5 1553 7 6 2 12 6 12 10 0 3 15 7 33 8 17 2
34 7 35 12 2 6 8 10 13 10 20 0 109 88 109 107 0 7 4 13 9 13 10 0 42 133 43
180 1 17 5 27 11 23 6 -4 7 -1 1 8 -12 19 -14 201 -2 216 5 7 6 18 1 25 -11
17 -12 237 -1 244 4 3 5 11 1 17 -11 17 -12 186 -2 193 5 3 6 11 2 17 -12 19
-12 71 1 86 7 9 7 12 0 8 -13 -8 -13 131 0 152 6 9 5 12 -1 8 -12 -8 -11 133
1 152 6 9 5 12 -1 8 -12 -8 -11 133 1 152 6 9 5 12 -1 8 -6 -4 -10 25 -10 74
0 44 4 82 9 85 4 3 5 11 1 17 -12 18 -12 180 -1 194 5 7 6 18 1 25 -13 21 -12
239 1 231 6 -4 5 0 -2 9 -7 9 -12 20 -11 24 2 5 -3 35 -10 66 -7 32 -13 61
-13 65 -1 9 -57 93 -73 108 -48 46 -116 77 -172 78 -13 1 -23 5 -23 9 0 10
-5845 5 -5885 -5 -16 -4 -40 -10 -52 -12 -12 -2 -30 -8 -40 -13 -34 -19 -98
-74 -95 -83 1 -5 -2 -9 -7 -9 -13 0 -49 -65 -55 -97 -2 -16 -5 -28 -6 -28 -2
0 -7 -34 -13 -77 -3 -16 0 -28 5 -28 6 0 8 -6 5 -14 -3 -8 -3 -17 1 -20 3 -4
8 -19 10 -33 2 -14 12 -44 23 -67 10 -22 19 -46 19 -53 0 -7 5 -13 10 -13 6 0
9 -3 8 -7 -1 -5 4 -24 11 -43 8 -19 13 -38 12 -42 0 -5 3 -8 7 -8 5 0 9 -6 10
-12 2 -18 48 -148 56 -155 3 -4 6 -12 6 -19 0 -7 5 -25 12 -41 13 -33 18 -49
25 -85 3 -16 9 -28 12 -28 4 0 8 -6 8 -14 0 -8 8 -40 18 -73 11 -32 18 -62 17
-67 -2 -4 1 -13 6 -20 4 -6 8 -18 7 -26 0 -8 2 -17 6 -20 4 -3 10 -25 14 -50
4 -24 8 -47 10 -50 2 -3 6 -25 10 -50 4 -25 8 -47 10 -50 2 -3 6 -26 9 -50 4
-25 9 -56 12 -70 2 -14 7 -41 9 -60 3 -19 7 -48 9 -64 4 -26 11 -85 23 -201 2
-22 5 -67 6 -100 2 -34 6 -65 9 -70 7 -13 6 -605 -1 -605 -3 0 -7 -30 -7 -68
-1 -37 -5 -92 -8 -122 -4 -30 -9 -77 -11 -105 -3 -27 -7 -61 -10 -75 -3 -14
-7 -43 -10 -65 -3 -22 -7 -51 -10 -65 -3 -14 -7 -47 -10 -74 -3 -27 -8 -52
-12 -55 -5 -3 -8 -15 -8 -26 0 -11 -5 -45 -12 -75 -7 -30 -15 -64 -17 -75 -2
-11 -16 -63 -31 -115 -15 -52 -28 -99 -30 -105 -1 -5 -5 -19 -9 -30 -17 -43
-19 -50 -23 -62 -1 -7 -5 -19 -6 -25 -2 -7 -7 -20 -10 -28 -3 -8 -18 -49 -32
-90 -14 -41 -32 -88 -40 -105 -15 -36 -27 -66 -30 -80 -2 -5 -14 -36 -29 -67
-30 -66 -48 -111 -46 -117 1 -2 -2 -7 -7 -10 -10 -7 -35 -59 -39 -80 -1 -8 -7
-17 -12 -20 -5 -3 -12 -18 -16 -33 -3 -16 -11 -28 -16 -28 -6 0 -10 -8 -10
-18 0 -10 -4 -22 -9 -28 -16 -17 -61 -105 -61 -118 0 -8 -7 -16 -15 -20 -8 -3
-15 -12 -15 -20 0 -8 -6 -21 -13 -28 -7 -7 -23 -35 -37 -61 -14 -26 -33 -57
-43 -68 -10 -10 -15 -19 -11 -19 4 0 -1 -9 -11 -20 -10 -11 -15 -20 -12 -20 3
0 -5 -12 -18 -26 -14 -15 -22 -30 -20 -34 3 -4 -2 -10 -10 -14 -8 -3 -15 -12
-15 -21 0 -8 -5 -15 -12 -15 -6 0 -9 -3 -6 -6 3 -3 -5 -17 -18 -31 -13 -14
-24 -32 -24 -39 0 -8 -4 -14 -8 -14 -5 0 -24 -22 -43 -50 -19 -27 -37 -50 -41
-50 -5 0 -8 -6 -8 -14 0 -8 -3 -16 -7 -18 -5 -1 -28 -28 -53 -58 -24 -30 -51
-63 -60 -72 -8 -9 -33 -38 -55 -64 -22 -26 -57 -65 -77 -87 -21 -21 -38 -43
-38 -48 0 -5 -7 -9 -16 -9 -8 0 -12 -4 -9 -10 3 -5 -1 -10 -9 -10 -9 0 -16 -4
-16 -9 0 -15 -297 -302 -335 -324 -8 -4 -27 -20 -42 -35 -43 -40 -82 -72 -91
-72 -4 0 -16 -11 -26 -25 -10 -13 -22 -23 -25 -20 -4 2 -14 -5 -21 -16 -8 -10
-19 -19 -25 -19 -6 0 -26 -14 -45 -30 -50 -43 -58 -50 -65 -50 -3 0 -15 -9
-27 -20 -12 -11 -28 -20 -35 -20 -7 0 -13 -4 -13 -10 0 -5 -7 -10 -15 -10 -8
0 -15 -5 -15 -11 0 -5 -4 -7 -10 -4 -5 3 -10 2 -10 -4 0 -6 -14 -18 -32 -27
-18 -9 -38 -23 -46 -30 -7 -8 -20 -14 -27 -14 -8 0 -19 -8 -24 -17 -6 -10 -11
-14 -11 -10 0 4 -24 -7 -53 -25 -29 -18 -70 -42 -92 -53 -22 -11 -42 -22 -45
-25 -3 -3 -32 -19 -65 -35 -33 -17 -61 -33 -63 -37 -2 -5 -8 -8 -13 -8 -8 0
-94 -38 -214 -95 -42 -20 -129 -58 -135 -59 -16 -3 -107 -40 -117 -48 -7 -5
-17 -7 -23 -3 -5 3 -10 1 -10 -6 0 -7 -3 -9 -7 -6 -3 4 -12 2 -20 -4 -7 -6
-13 -8 -13 -4 0 4 -7 2 -15 -5 -8 -6 -18 -9 -24 -6 -5 3 -11 2 -13 -4 -2 -6
-12 -12 -23 -14 -11 -2 -40 -11 -64 -20 -25 -8 -48 -13 -53 -10 -4 3 -8 1 -8
-4 0 -6 -17 -13 -37 -17 -21 -4 -42 -10 -48 -13 -5 -4 -14 -7 -20 -8 -5 -1
-30 -7 -55 -14 -25 -7 -54 -14 -65 -17 -38 -8 -50 -11 -50 -13 0 -2 -17 -5
-80 -16 -22 -3 -48 -11 -59 -16 -14 -7 -17 -7 -11 2 6 9 2 9 -15 0 -12 -6 -28
-9 -36 -6 -8 3 -14 1 -14 -4 0 -5 -10 -9 -22 -9 -13 1 -42 -2 -66 -6 -24 -4
-49 -8 -55 -9 -7 -1 -18 -5 -24 -9 -7 -5 -13 -4 -13 2 0 7 -9 7 -22 3 -13 -5
-30 -8 -38 -7 -8 1 -19 -1 -24 -4 -5 -2 -32 -6 -60 -8 -28 -2 -57 -5 -63 -8
-7 -2 -13 1 -13 8 0 9 -2 9 -8 0 -5 -8 -49 -14 -117 -18 -178 -9 -505 -11
-505 -2 0 5 -5 5 -12 1 -14 -9 -58 -12 -58 -4 0 3 -35 6 -78 8 -77 3 -157 9
-157 12 0 0 -22 3 -50 5 -106 9 -260 30 -260 35 0 1 -12 3 -27 4 -14 0 -29 4
-33 8 -4 4 -13 4 -21 1 -8 -3 -22 -2 -31 2 -10 4 -31 9 -48 11 -16 2 -46 8
-65 13 -52 14 -207 52 -222 55 -7 1 -19 5 -25 9 -13 8 -48 18 -70 19 -7 1 -13
5 -13 10 0 5 -4 7 -9 4 -5 -3 -25 1 -44 9 -19 8 -37 11 -41 8 -3 -4 -6 -1 -6
5 0 7 -11 12 -24 12 -14 0 -27 4 -30 9 -5 8 -64 25 -78 22 -5 0 -8 3 -8 9 0 6
-3 9 -7 8 -5 -1 -23 3 -41 9 -18 7 -36 13 -40 14 -4 0 -16 6 -27 12 -11 6 -22
12 -25 13 -3 0 -21 7 -40 15 -19 7 -38 12 -42 11 -5 -1 -8 2 -8 7 0 8 -49 25
-59 21 -2 -1 -7 2 -10 7 -6 8 -64 37 -128 64 -18 8 -33 18 -33 22 0 5 -4 6 -9
2 -5 -3 -12 -1 -16 5 -4 6 -11 8 -16 5 -5 -4 -9 -2 -9 4 0 6 -11 13 -25 17
-14 3 -25 11 -25 17 0 6 -3 8 -6 4 -3 -3 -24 5 -45 19 -21 13 -41 24 -44 24
-10 0 -255 149 -344 209 -46 31 -91 61 -100 66 -9 6 -18 13 -21 16 -3 3 -39
30 -80 60 -41 31 -83 63 -92 72 -9 9 -19 17 -23 17 -4 0 -12 6 -19 13 -7 6
-35 30 -61 52 -26 22 -65 57 -87 78 -21 20 -41 37 -44 37 -3 0 -32 27 -64 59
-32 33 -61 57 -64 53 -3 -3 -6 -1 -6 5 0 5 -46 57 -102 115 -57 58 -123 129
-148 158 -25 28 -55 63 -67 76 -13 13 -23 25 -23 28 0 3 -12 19 -27 35 -35 37
-43 47 -73 91 -14 19 -33 42 -42 51 -10 9 -18 21 -18 28 0 6 -4 11 -10 11 -5
0 -10 7 -10 15 0 8 -4 15 -8 15 -4 0 -19 18 -32 40 -14 22 -28 40 -32 40 -5 0
-8 6 -8 13 0 7 -9 22 -19 34 -10 11 -27 35 -36 54 -10 19 -23 37 -29 41 -6 4
-7 8 -3 8 4 0 -1 10 -13 22 -11 12 -20 28 -20 35 0 7 -4 13 -10 13 -5 0 -10 6
-10 14 0 7 -7 19 -15 26 -9 7 -13 15 -11 18 3 2 -8 24 -24 48 -17 23 -30 47
-30 52 0 5 -7 15 -15 22 -9 7 -13 15 -11 18 3 2 -6 21 -19 42 -13 21 -21 41
-18 44 4 3 1 6 -5 6 -7 0 -12 7 -12 16 0 9 -9 27 -20 41 -11 14 -20 34 -20 44
0 11 -4 19 -8 19 -9 0 -48 91 -44 102 1 5 -2 8 -7 8 -5 0 -12 12 -16 28 -3 15
-14 35 -23 46 -9 10 -16 19 -14 20 6 2 -19 68 -48 129 -10 20 -13 34 -7 30 7
-4 5 1 -3 11 -13 17 -20 35 -22 64 -1 6 -5 12 -10 12 -5 0 -7 4 -3 9 3 5 1 12
-5 16 -6 4 -8 11 -5 16 4 5 2 9 -4 9 -6 0 -8 7 -5 15 4 8 1 15 -7 15 -7 0 -10
3 -7 6 3 3 -3 31 -14 62 -21 60 -29 89 -30 110 -1 6 -4 12 -8 12 -4 0 -7 6 -8
13 -1 14 -10 52 -12 52 -1 0 -3 7 -5 15 -1 8 -12 51 -24 96 -11 45 -23 92 -25
105 -3 13 -5 26 -6 29 -2 3 -2 8 -1 13 1 4 -4 28 -10 55 -13 55 -20 94 -24
137 -2 16 -4 30 -5 30 -1 0 -3 14 -5 30 -2 17 -6 50 -10 75 -3 25 -9 77 -12
115 -3 39 -10 78 -15 88 -6 11 -5 17 2 17 6 0 8 5 5 10 -4 6 -8 44 -10 84 -1
41 -6 80 -10 86 -4 7 -1 16 6 21 8 5 9 9 4 9 -11 0 -13 449 -1 468 3 6 2 14
-4 17 -7 4 -7 12 -2 18 4 7 8 21 7 32 0 11 3 30 7 43 5 13 3 22 -3 22 -6 0 -7
5 -4 11 4 5 9 34 11 62 2 29 7 70 10 92 3 22 6 59 7 82 1 24 6 43 10 43 5 0 6
4 3 9 -4 5 -2 21 4 36 7 19 7 24 -1 19 -8 -4 -8 -1 -1 12 6 11 10 22 11 27 1
4 1 10 2 15 1 4 0 17 0 29 -1 11 3 24 9 28 5 3 8 10 5 15 -5 8 20 144 32 180
3 8 7 29 9 45 2 17 8 41 14 55 5 14 11 34 13 45 1 11 6 26 10 33 5 6 5 17 2
22 -3 6 -1 10 5 10 7 0 10 6 7 14 -3 7 -1 18 3 22 5 5 11 21 14 34 2 14 5 26
7 28 1 1 3 7 4 12 1 6 4 12 5 15 1 3 3 8 4 13 8 36 61 178 68 183 5 3 9 9 8
13 -3 11 24 96 31 96 3 0 6 6 6 13 0 6 7 29 16 50 9 20 17 39 17 42 0 3 14 31
30 64 17 33 30 64 30 69 0 5 9 21 20 34 10 14 17 28 14 31 -7 6 25 68 41 79 6
4 7 8 3 8 -3 0 11 32 32 70 21 39 42 80 45 90 4 11 11 20 16 20 6 0 7 5 4 10
-3 6 0 13 8 16 7 2 14 10 14 17 0 7 16 38 36 70 20 31 34 57 31 57 -3 0 1 7 8
15 31 34 36 43 31 49 -4 3 -1 6 5 6 7 0 12 6 12 13 0 7 9 23 20 35 11 12 20
26 20 32 0 5 5 10 10 10 6 0 10 5 10 12 0 6 9 21 19 32 11 12 21 27 23 34 2 8
18 30 36 50 17 20 32 42 32 49 0 7 4 13 8 13 5 0 23 20 41 45 17 24 37 50 44
57 7 7 30 35 52 63 22 27 47 57 55 66 8 9 38 43 65 75 74 86 333 344 346 344
5 0 7 5 4 10 -3 6 -3 10 2 10 4 0 28 18 53 40 25 22 48 40 53 40 4 0 7 7 7 16
0 8 4 13 8 10 5 -3 15 3 24 12 8 9 28 27 44 39 16 13 66 52 111 88 45 36 86
65 92 65 6 0 11 3 11 8 0 4 30 27 67 52 38 25 74 51 81 58 7 6 17 12 21 12 4
0 21 11 37 25 16 14 33 25 37 25 5 0 27 13 50 29 23 15 52 31 65 35 12 4 22
12 22 17 0 6 5 7 10 4 6 -3 10 -1 10 4 0 6 5 11 11 11 6 0 24 9 40 21 16 11
29 17 29 12 0 -4 7 1 16 12 8 11 17 19 19 17 3 -1 29 10 58 25 28 15 55 26 60
25 4 -1 7 3 7 8 0 5 3 9 8 8 8 -2 84 34 92 43 6 7 41 19 54 18 5 0 12 3 15 8
8 10 80 44 105 49 11 2 23 9 26 15 4 6 10 10 14 10 3 -1 8 0 11 0 3 1 8 2 13
3 4 1 24 10 46 19 21 9 44 17 52 17 7 0 20 7 28 16 9 8 16 13 16 10 0 -3 19 2
43 10 23 9 47 17 52 18 6 2 19 6 30 10 11 5 37 14 58 22 20 8 37 11 37 8 0 -4
6 -1 13 5 8 6 17 8 20 4 4 -3 7 -1 7 6 0 8 7 10 20 6 11 -3 20 -2 20 3 0 8 25
16 80 26 3 1 10 5 17 9 6 4 18 4 27 1 9 -3 16 -1 16 5 0 6 9 11 19 11 11 0 22
4 25 8 3 5 19 7 35 6 17 -1 31 2 31 6 0 5 8 7 18 6 9 -2 33 2 52 9 19 7 43 11
52 9 10 -1 20 1 23 6 2 4 16 6 30 5 14 -2 25 0 25 3 0 4 10 8 23 8 40 2 104
11 113 16 5 2 21 4 37 3 15 0 27 2 27 5 0 5 17 6 142 12 38 2 68 6 68 9 0 3
30 7 68 9 105 3 131 6 138 13 4 3 15 2 25 -3 12 -7 20 -7 24 0 5 8 11 7 21 -1
8 -6 14 -8 14 -3 0 5 1784 10 4123 10 2267 1 4137 3 4155 4 18 2 35 7 38 12 3
4 12 8 21 8 26 0 81 30 115 64 35 34 72 83 74 97 1 5 3 11 4 14 1 3 3 13 5 23
1 9 4 24 8 32 8 19 19 90 18 110 -2 20 -1 123 1 135 1 6 -2 23 -6 39 -5 20 -4
26 5 20 7 -4 9 -3 6 3 -5 8 -8 55 -7 116 0 9 1 46 1 82 0 36 0 71 0 78 0 6 -1
36 -2 65 -1 29 1 55 4 58 3 3 4 11 1 18 -9 23 -10 86 -2 86 5 0 7 4 3 10 -8
13 -10 118 -3 126 4 3 5 11 3 17 -11 38 -15 68 -7 63 4 -2 6 10 4 27 -3 30 -3
130 0 152 1 6 -2 23 -6 39 -5 20 -4 26 5 20 7 -4 9 -3 6 3 -5 8 -8 55 -7 116
0 9 1 46 1 82 0 36 0 71 0 78 0 6 -1 54 -2 105 -1 51 1 95 4 98 3 3 4 11 1 18
-8 21 -11 86 -3 86 4 0 4 15 0 33 -4 17 -4 46 -1 62 4 17 3 40 -1 52 -5 12 -4
35 1 51 4 17 4 34 -1 39 -4 4 -9 23 -11 41 -1 19 -6 36 -10 38 -4 3 -8 18 -8
34 0 17 -8 34 -20 43 -11 8 -17 17 -13 20 3 4 2 7 -4 7 -5 0 -15 11 -21 25 -6
14 -18 25 -26 25 -7 0 -16 7 -20 15 -3 8 -12 15 -21 15 -8 0 -15 5 -15 10 0 6
-11 10 -23 10 -13 0 -27 3 -31 7 -3 4 -12 8 -19 9 -7 1 -28 5 -47 9 -34 7
-8338 13 -8345 7z"/>
<path d="M9059 13505 c-2 -2 -34 -6 -71 -9 -55 -5 -213 -31 -303 -50 -83 -17
-312 -90 -382 -122 -17 -8 -34 -14 -37 -14 -9 0 -232 -111 -291 -145 -48 -28
-213 -137 -245 -162 -391 -306 -658 -648 -832 -1068 -93 -223 -145 -420 -183
-690 -10 -68 -13 -456 -5 -535 23 -207 58 -375 119 -558 92 -278 213 -510 386
-740 397 -531 984 -883 1652 -992 114 -19 211 -25 398 -25 244 0 329 9 545 56
908 198 1632 871 1903 1769 37 122 52 186 72 310 4 25 9 54 11 65 19 97 26
511 11 625 -12 89 -37 238 -47 288 -19 86 -90 319 -117 382 -9 19 -22 51 -30
70 -292 678 -871 1204 -1573 1428 -99 32 -238 67 -304 77 -21 4 -48 9 -60 11
-11 2 -41 7 -66 10 -25 3 -56 8 -70 11 -30 5 -476 13 -481 8z"/>
</g>
</svg>
